<?xml version="1.0" encoding="utf-8" standalone="no"?>
<!DOCTYPE svg PUBLIC "-//W3C//DTD SVG 1.1//EN"
  "http://www.w3.org/Graphics/SVG/1.1/DTD/svg11.dtd">
<svg xmlns:xlink="http://www.w3.org/1999/xlink" width="460.8pt" height="345.6pt" viewBox="0 0 460.8 345.6" xmlns="http://www.w3.org/2000/svg" version="1.1">
 <metadata>
  <rdf:RDF xmlns:dc="http://purl.org/dc/elements/1.1/" xmlns:cc="http://creativecommons.org/ns#" xmlns:rdf="http://www.w3.org/1999/02/22-rdf-syntax-ns#">
   <cc:Work>
    <dc:type rdf:resource="http://purl.org/dc/dcmitype/StillImage"/>
    <dc:date>2023-05-29T15:05:34.705014</dc:date>
    <dc:format>image/svg+xml</dc:format>
    <dc:creator>
     <cc:Agent>
      <dc:title>Matplotlib v3.5.3, https://matplotlib.org/</dc:title>
     </cc:Agent>
    </dc:creator>
   </cc:Work>
  </rdf:RDF>
 </metadata>
 <defs>
  <style type="text/css">*{stroke-linejoin: round; stroke-linecap: butt}</style>
 </defs>
 <g id="figure_1">
  <g id="patch_1">
   <path d="M 0 345.6 
L 460.8 345.6 
L 460.8 0 
L 0 0 
z
" style="fill: #ffffff"/>
  </g>
  <g id="axes_1">
   <g id="patch_2">
    <path d="M 57.6 307.584 
L 414.72 307.584 
L 414.72 41.472 
L 57.6 41.472 
z
" style="fill: #eaeaf2"/>
   </g>
   <g id="matplotlib.axis_1">
    <g id="xtick_1">
     <g id="line2d_1">
      <path d="M 68.774098 307.584 
L 68.774098 41.472 
" clip-path="url(#peaca41a9a9)" style="fill: none; stroke: #ffffff; stroke-linecap: round"/>
     </g>
     <g id="text_1">
      <!-- 0.0 -->
      <g style="fill: #262626" transform="translate(60.027379 325.442281)scale(0.11 -0.11)">
       <defs>
        <path id="DejaVuSans-30" d="M 2034 4250 
Q 1547 4250 1301 3770 
Q 1056 3291 1056 2328 
Q 1056 1369 1301 889 
Q 1547 409 2034 409 
Q 2525 409 2770 889 
Q 3016 1369 3016 2328 
Q 3016 3291 2770 3770 
Q 2525 4250 2034 4250 
z
M 2034 4750 
Q 2819 4750 3233 4129 
Q 3647 3509 3647 2328 
Q 3647 1150 3233 529 
Q 2819 -91 2034 -91 
Q 1250 -91 836 529 
Q 422 1150 422 2328 
Q 422 3509 836 4129 
Q 1250 4750 2034 4750 
z
" transform="scale(0.015625)"/>
        <path id="DejaVuSans-2e" d="M 684 794 
L 1344 794 
L 1344 0 
L 684 0 
L 684 794 
z
" transform="scale(0.015625)"/>
       </defs>
       <use xlink:href="#DejaVuSans-30"/>
       <use xlink:href="#DejaVuSans-2e" x="63.623047"/>
       <use xlink:href="#DejaVuSans-30" x="95.410156"/>
      </g>
     </g>
    </g>
    <g id="xtick_2">
     <g id="line2d_2">
      <path d="M 134.874051 307.584 
L 134.874051 41.472 
" clip-path="url(#peaca41a9a9)" style="fill: none; stroke: #ffffff; stroke-linecap: round"/>
     </g>
     <g id="text_2">
      <!-- 200.00k -->
      <g style="fill: #262626" transform="translate(112.444363 325.442281)scale(0.11 -0.11)">
       <defs>
        <path id="DejaVuSans-32" d="M 1228 531 
L 3431 531 
L 3431 0 
L 469 0 
L 469 531 
Q 828 903 1448 1529 
Q 2069 2156 2228 2338 
Q 2531 2678 2651 2914 
Q 2772 3150 2772 3378 
Q 2772 3750 2511 3984 
Q 2250 4219 1831 4219 
Q 1534 4219 1204 4116 
Q 875 4013 500 3803 
L 500 4441 
Q 881 4594 1212 4672 
Q 1544 4750 1819 4750 
Q 2544 4750 2975 4387 
Q 3406 4025 3406 3419 
Q 3406 3131 3298 2873 
Q 3191 2616 2906 2266 
Q 2828 2175 2409 1742 
Q 1991 1309 1228 531 
z
" transform="scale(0.015625)"/>
        <path id="DejaVuSans-6b" d="M 581 4863 
L 1159 4863 
L 1159 1991 
L 2875 3500 
L 3609 3500 
L 1753 1863 
L 3688 0 
L 2938 0 
L 1159 1709 
L 1159 0 
L 581 0 
L 581 4863 
z
" transform="scale(0.015625)"/>
       </defs>
       <use xlink:href="#DejaVuSans-32"/>
       <use xlink:href="#DejaVuSans-30" x="63.623047"/>
       <use xlink:href="#DejaVuSans-30" x="127.246094"/>
       <use xlink:href="#DejaVuSans-2e" x="190.869141"/>
       <use xlink:href="#DejaVuSans-30" x="222.65625"/>
       <use xlink:href="#DejaVuSans-30" x="286.279297"/>
       <use xlink:href="#DejaVuSans-6b" x="349.902344"/>
      </g>
     </g>
    </g>
    <g id="xtick_3">
     <g id="line2d_3">
      <path d="M 200.974004 307.584 
L 200.974004 41.472 
" clip-path="url(#peaca41a9a9)" style="fill: none; stroke: #ffffff; stroke-linecap: round"/>
     </g>
     <g id="text_3">
      <!-- 400.00k -->
      <g style="fill: #262626" transform="translate(178.544316 325.442281)scale(0.11 -0.11)">
       <defs>
        <path id="DejaVuSans-34" d="M 2419 4116 
L 825 1625 
L 2419 1625 
L 2419 4116 
z
M 2253 4666 
L 3047 4666 
L 3047 1625 
L 3713 1625 
L 3713 1100 
L 3047 1100 
L 3047 0 
L 2419 0 
L 2419 1100 
L 313 1100 
L 313 1709 
L 2253 4666 
z
" transform="scale(0.015625)"/>
       </defs>
       <use xlink:href="#DejaVuSans-34"/>
       <use xlink:href="#DejaVuSans-30" x="63.623047"/>
       <use xlink:href="#DejaVuSans-30" x="127.246094"/>
       <use xlink:href="#DejaVuSans-2e" x="190.869141"/>
       <use xlink:href="#DejaVuSans-30" x="222.65625"/>
       <use xlink:href="#DejaVuSans-30" x="286.279297"/>
       <use xlink:href="#DejaVuSans-6b" x="349.902344"/>
      </g>
     </g>
    </g>
    <g id="xtick_4">
     <g id="line2d_4">
      <path d="M 267.073956 307.584 
L 267.073956 41.472 
" clip-path="url(#peaca41a9a9)" style="fill: none; stroke: #ffffff; stroke-linecap: round"/>
     </g>
     <g id="text_4">
      <!-- 600.00k -->
      <g style="fill: #262626" transform="translate(244.644269 325.442281)scale(0.11 -0.11)">
       <defs>
        <path id="DejaVuSans-36" d="M 2113 2584 
Q 1688 2584 1439 2293 
Q 1191 2003 1191 1497 
Q 1191 994 1439 701 
Q 1688 409 2113 409 
Q 2538 409 2786 701 
Q 3034 994 3034 1497 
Q 3034 2003 2786 2293 
Q 2538 2584 2113 2584 
z
M 3366 4563 
L 3366 3988 
Q 3128 4100 2886 4159 
Q 2644 4219 2406 4219 
Q 1781 4219 1451 3797 
Q 1122 3375 1075 2522 
Q 1259 2794 1537 2939 
Q 1816 3084 2150 3084 
Q 2853 3084 3261 2657 
Q 3669 2231 3669 1497 
Q 3669 778 3244 343 
Q 2819 -91 2113 -91 
Q 1303 -91 875 529 
Q 447 1150 447 2328 
Q 447 3434 972 4092 
Q 1497 4750 2381 4750 
Q 2619 4750 2861 4703 
Q 3103 4656 3366 4563 
z
" transform="scale(0.015625)"/>
       </defs>
       <use xlink:href="#DejaVuSans-36"/>
       <use xlink:href="#DejaVuSans-30" x="63.623047"/>
       <use xlink:href="#DejaVuSans-30" x="127.246094"/>
       <use xlink:href="#DejaVuSans-2e" x="190.869141"/>
       <use xlink:href="#DejaVuSans-30" x="222.65625"/>
       <use xlink:href="#DejaVuSans-30" x="286.279297"/>
       <use xlink:href="#DejaVuSans-6b" x="349.902344"/>
      </g>
     </g>
    </g>
    <g id="xtick_5">
     <g id="line2d_5">
      <path d="M 333.173909 307.584 
L 333.173909 41.472 
" clip-path="url(#peaca41a9a9)" style="fill: none; stroke: #ffffff; stroke-linecap: round"/>
     </g>
     <g id="text_5">
      <!-- 800.00k -->
      <g style="fill: #262626" transform="translate(310.744222 325.442281)scale(0.11 -0.11)">
       <defs>
        <path id="DejaVuSans-38" d="M 2034 2216 
Q 1584 2216 1326 1975 
Q 1069 1734 1069 1313 
Q 1069 891 1326 650 
Q 1584 409 2034 409 
Q 2484 409 2743 651 
Q 3003 894 3003 1313 
Q 3003 1734 2745 1975 
Q 2488 2216 2034 2216 
z
M 1403 2484 
Q 997 2584 770 2862 
Q 544 3141 544 3541 
Q 544 4100 942 4425 
Q 1341 4750 2034 4750 
Q 2731 4750 3128 4425 
Q 3525 4100 3525 3541 
Q 3525 3141 3298 2862 
Q 3072 2584 2669 2484 
Q 3125 2378 3379 2068 
Q 3634 1759 3634 1313 
Q 3634 634 3220 271 
Q 2806 -91 2034 -91 
Q 1263 -91 848 271 
Q 434 634 434 1313 
Q 434 1759 690 2068 
Q 947 2378 1403 2484 
z
M 1172 3481 
Q 1172 3119 1398 2916 
Q 1625 2713 2034 2713 
Q 2441 2713 2670 2916 
Q 2900 3119 2900 3481 
Q 2900 3844 2670 4047 
Q 2441 4250 2034 4250 
Q 1625 4250 1398 4047 
Q 1172 3844 1172 3481 
z
" transform="scale(0.015625)"/>
       </defs>
       <use xlink:href="#DejaVuSans-38"/>
       <use xlink:href="#DejaVuSans-30" x="63.623047"/>
       <use xlink:href="#DejaVuSans-30" x="127.246094"/>
       <use xlink:href="#DejaVuSans-2e" x="190.869141"/>
       <use xlink:href="#DejaVuSans-30" x="222.65625"/>
       <use xlink:href="#DejaVuSans-30" x="286.279297"/>
       <use xlink:href="#DejaVuSans-6b" x="349.902344"/>
      </g>
     </g>
    </g>
    <g id="xtick_6">
     <g id="line2d_6">
      <path d="M 399.273862 307.584 
L 399.273862 41.472 
" clip-path="url(#peaca41a9a9)" style="fill: none; stroke: #ffffff; stroke-linecap: round"/>
     </g>
     <g id="text_6">
      <!-- 1.00M -->
      <g style="fill: #262626" transform="translate(382.2823 325.442281)scale(0.11 -0.11)">
       <defs>
        <path id="DejaVuSans-31" d="M 794 531 
L 1825 531 
L 1825 4091 
L 703 3866 
L 703 4441 
L 1819 4666 
L 2450 4666 
L 2450 531 
L 3481 531 
L 3481 0 
L 794 0 
L 794 531 
z
" transform="scale(0.015625)"/>
        <path id="DejaVuSans-4d" d="M 628 4666 
L 1569 4666 
L 2759 1491 
L 3956 4666 
L 4897 4666 
L 4897 0 
L 4281 0 
L 4281 4097 
L 3078 897 
L 2444 897 
L 1241 4097 
L 1241 0 
L 628 0 
L 628 4666 
z
" transform="scale(0.015625)"/>
       </defs>
       <use xlink:href="#DejaVuSans-31"/>
       <use xlink:href="#DejaVuSans-2e" x="63.623047"/>
       <use xlink:href="#DejaVuSans-30" x="95.410156"/>
       <use xlink:href="#DejaVuSans-30" x="159.033203"/>
       <use xlink:href="#DejaVuSans-4d" x="222.65625"/>
      </g>
     </g>
    </g>
    <g id="text_7">
     <!-- step -->
     <g style="fill: #262626" transform="translate(223.18125 340.848062)scale(0.12 -0.12)">
      <defs>
       <path id="DejaVuSans-73" d="M 2834 3397 
L 2834 2853 
Q 2591 2978 2328 3040 
Q 2066 3103 1784 3103 
Q 1356 3103 1142 2972 
Q 928 2841 928 2578 
Q 928 2378 1081 2264 
Q 1234 2150 1697 2047 
L 1894 2003 
Q 2506 1872 2764 1633 
Q 3022 1394 3022 966 
Q 3022 478 2636 193 
Q 2250 -91 1575 -91 
Q 1294 -91 989 -36 
Q 684 19 347 128 
L 347 722 
Q 666 556 975 473 
Q 1284 391 1588 391 
Q 1994 391 2212 530 
Q 2431 669 2431 922 
Q 2431 1156 2273 1281 
Q 2116 1406 1581 1522 
L 1381 1569 
Q 847 1681 609 1914 
Q 372 2147 372 2553 
Q 372 3047 722 3315 
Q 1072 3584 1716 3584 
Q 2034 3584 2315 3537 
Q 2597 3491 2834 3397 
z
" transform="scale(0.015625)"/>
       <path id="DejaVuSans-74" d="M 1172 4494 
L 1172 3500 
L 2356 3500 
L 2356 3053 
L 1172 3053 
L 1172 1153 
Q 1172 725 1289 603 
Q 1406 481 1766 481 
L 2356 481 
L 2356 0 
L 1766 0 
Q 1100 0 847 248 
Q 594 497 594 1153 
L 594 3053 
L 172 3053 
L 172 3500 
L 594 3500 
L 594 4494 
L 1172 4494 
z
" transform="scale(0.015625)"/>
       <path id="DejaVuSans-65" d="M 3597 1894 
L 3597 1613 
L 953 1613 
Q 991 1019 1311 708 
Q 1631 397 2203 397 
Q 2534 397 2845 478 
Q 3156 559 3463 722 
L 3463 178 
Q 3153 47 2828 -22 
Q 2503 -91 2169 -91 
Q 1331 -91 842 396 
Q 353 884 353 1716 
Q 353 2575 817 3079 
Q 1281 3584 2069 3584 
Q 2775 3584 3186 3129 
Q 3597 2675 3597 1894 
z
M 3022 2063 
Q 3016 2534 2758 2815 
Q 2500 3097 2075 3097 
Q 1594 3097 1305 2825 
Q 1016 2553 972 2059 
L 3022 2063 
z
" transform="scale(0.015625)"/>
       <path id="DejaVuSans-70" d="M 1159 525 
L 1159 -1331 
L 581 -1331 
L 581 3500 
L 1159 3500 
L 1159 2969 
Q 1341 3281 1617 3432 
Q 1894 3584 2278 3584 
Q 2916 3584 3314 3078 
Q 3713 2572 3713 1747 
Q 3713 922 3314 415 
Q 2916 -91 2278 -91 
Q 1894 -91 1617 61 
Q 1341 213 1159 525 
z
M 3116 1747 
Q 3116 2381 2855 2742 
Q 2594 3103 2138 3103 
Q 1681 3103 1420 2742 
Q 1159 2381 1159 1747 
Q 1159 1113 1420 752 
Q 1681 391 2138 391 
Q 2594 391 2855 752 
Q 3116 1113 3116 1747 
z
" transform="scale(0.015625)"/>
      </defs>
      <use xlink:href="#DejaVuSans-73"/>
      <use xlink:href="#DejaVuSans-74" x="52.099609"/>
      <use xlink:href="#DejaVuSans-65" x="91.308594"/>
      <use xlink:href="#DejaVuSans-70" x="152.832031"/>
     </g>
    </g>
   </g>
   <g id="matplotlib.axis_2">
    <g id="ytick_1">
     <g id="line2d_7">
      <path d="M 57.6 265.36424 
L 414.72 265.36424 
" clip-path="url(#peaca41a9a9)" style="fill: none; stroke: #ffffff; stroke-linecap: round"/>
     </g>
     <g id="text_8">
      <!-- −20 -->
      <g style="fill: #262626" transform="translate(24.884844 269.54338)scale(0.11 -0.11)">
       <defs>
        <path id="DejaVuSans-2212" d="M 678 2272 
L 4684 2272 
L 4684 1741 
L 678 1741 
L 678 2272 
z
" transform="scale(0.015625)"/>
       </defs>
       <use xlink:href="#DejaVuSans-2212"/>
       <use xlink:href="#DejaVuSans-32" x="83.789062"/>
       <use xlink:href="#DejaVuSans-30" x="147.412109"/>
      </g>
     </g>
    </g>
    <g id="ytick_2">
     <g id="line2d_8">
      <path d="M 57.6 216.954621 
L 414.72 216.954621 
" clip-path="url(#peaca41a9a9)" style="fill: none; stroke: #ffffff; stroke-linecap: round"/>
     </g>
     <g id="text_9">
      <!-- −10 -->
      <g style="fill: #262626" transform="translate(24.884844 221.133762)scale(0.11 -0.11)">
       <use xlink:href="#DejaVuSans-2212"/>
       <use xlink:href="#DejaVuSans-31" x="83.789062"/>
       <use xlink:href="#DejaVuSans-30" x="147.412109"/>
      </g>
     </g>
    </g>
    <g id="ytick_3">
     <g id="line2d_9">
      <path d="M 57.6 168.545003 
L 414.72 168.545003 
" clip-path="url(#peaca41a9a9)" style="fill: none; stroke: #ffffff; stroke-linecap: round"/>
     </g>
     <g id="text_10">
      <!-- 0 -->
      <g style="fill: #262626" transform="translate(41.10125 172.724143)scale(0.11 -0.11)">
       <use xlink:href="#DejaVuSans-30"/>
      </g>
     </g>
    </g>
    <g id="ytick_4">
     <g id="line2d_10">
      <path d="M 57.6 120.135384 
L 414.72 120.135384 
" clip-path="url(#peaca41a9a9)" style="fill: none; stroke: #ffffff; stroke-linecap: round"/>
     </g>
     <g id="text_11">
      <!-- 10 -->
      <g style="fill: #262626" transform="translate(34.1025 124.314525)scale(0.11 -0.11)">
       <use xlink:href="#DejaVuSans-31"/>
       <use xlink:href="#DejaVuSans-30" x="63.623047"/>
      </g>
     </g>
    </g>
    <g id="ytick_5">
     <g id="line2d_11">
      <path d="M 57.6 71.725766 
L 414.72 71.725766 
" clip-path="url(#peaca41a9a9)" style="fill: none; stroke: #ffffff; stroke-linecap: round"/>
     </g>
     <g id="text_12">
      <!-- 20 -->
      <g style="fill: #262626" transform="translate(34.1025 75.904906)scale(0.11 -0.11)">
       <use xlink:href="#DejaVuSans-32"/>
       <use xlink:href="#DejaVuSans-30" x="63.623047"/>
      </g>
     </g>
    </g>
    <g id="text_13">
     <!-- evaluator_step/reward_mean -->
     <g style="fill: #262626" transform="translate(18.055469 261.877687)rotate(-90)scale(0.12 -0.12)">
      <defs>
       <path id="DejaVuSans-76" d="M 191 3500 
L 800 3500 
L 1894 563 
L 2988 3500 
L 3597 3500 
L 2284 0 
L 1503 0 
L 191 3500 
z
" transform="scale(0.015625)"/>
       <path id="DejaVuSans-61" d="M 2194 1759 
Q 1497 1759 1228 1600 
Q 959 1441 959 1056 
Q 959 750 1161 570 
Q 1363 391 1709 391 
Q 2188 391 2477 730 
Q 2766 1069 2766 1631 
L 2766 1759 
L 2194 1759 
z
M 3341 1997 
L 3341 0 
L 2766 0 
L 2766 531 
Q 2569 213 2275 61 
Q 1981 -91 1556 -91 
Q 1019 -91 701 211 
Q 384 513 384 1019 
Q 384 1609 779 1909 
Q 1175 2209 1959 2209 
L 2766 2209 
L 2766 2266 
Q 2766 2663 2505 2880 
Q 2244 3097 1772 3097 
Q 1472 3097 1187 3025 
Q 903 2953 641 2809 
L 641 3341 
Q 956 3463 1253 3523 
Q 1550 3584 1831 3584 
Q 2591 3584 2966 3190 
Q 3341 2797 3341 1997 
z
" transform="scale(0.015625)"/>
       <path id="DejaVuSans-6c" d="M 603 4863 
L 1178 4863 
L 1178 0 
L 603 0 
L 603 4863 
z
" transform="scale(0.015625)"/>
       <path id="DejaVuSans-75" d="M 544 1381 
L 544 3500 
L 1119 3500 
L 1119 1403 
Q 1119 906 1312 657 
Q 1506 409 1894 409 
Q 2359 409 2629 706 
Q 2900 1003 2900 1516 
L 2900 3500 
L 3475 3500 
L 3475 0 
L 2900 0 
L 2900 538 
Q 2691 219 2414 64 
Q 2138 -91 1772 -91 
Q 1169 -91 856 284 
Q 544 659 544 1381 
z
M 1991 3584 
L 1991 3584 
z
" transform="scale(0.015625)"/>
       <path id="DejaVuSans-6f" d="M 1959 3097 
Q 1497 3097 1228 2736 
Q 959 2375 959 1747 
Q 959 1119 1226 758 
Q 1494 397 1959 397 
Q 2419 397 2687 759 
Q 2956 1122 2956 1747 
Q 2956 2369 2687 2733 
Q 2419 3097 1959 3097 
z
M 1959 3584 
Q 2709 3584 3137 3096 
Q 3566 2609 3566 1747 
Q 3566 888 3137 398 
Q 2709 -91 1959 -91 
Q 1206 -91 779 398 
Q 353 888 353 1747 
Q 353 2609 779 3096 
Q 1206 3584 1959 3584 
z
" transform="scale(0.015625)"/>
       <path id="DejaVuSans-72" d="M 2631 2963 
Q 2534 3019 2420 3045 
Q 2306 3072 2169 3072 
Q 1681 3072 1420 2755 
Q 1159 2438 1159 1844 
L 1159 0 
L 581 0 
L 581 3500 
L 1159 3500 
L 1159 2956 
Q 1341 3275 1631 3429 
Q 1922 3584 2338 3584 
Q 2397 3584 2469 3576 
Q 2541 3569 2628 3553 
L 2631 2963 
z
" transform="scale(0.015625)"/>
       <path id="DejaVuSans-5f" d="M 3263 -1063 
L 3263 -1509 
L -63 -1509 
L -63 -1063 
L 3263 -1063 
z
" transform="scale(0.015625)"/>
       <path id="DejaVuSans-2f" d="M 1625 4666 
L 2156 4666 
L 531 -594 
L 0 -594 
L 1625 4666 
z
" transform="scale(0.015625)"/>
       <path id="DejaVuSans-77" d="M 269 3500 
L 844 3500 
L 1563 769 
L 2278 3500 
L 2956 3500 
L 3675 769 
L 4391 3500 
L 4966 3500 
L 4050 0 
L 3372 0 
L 2619 2869 
L 1863 0 
L 1184 0 
L 269 3500 
z
" transform="scale(0.015625)"/>
       <path id="DejaVuSans-64" d="M 2906 2969 
L 2906 4863 
L 3481 4863 
L 3481 0 
L 2906 0 
L 2906 525 
Q 2725 213 2448 61 
Q 2172 -91 1784 -91 
Q 1150 -91 751 415 
Q 353 922 353 1747 
Q 353 2572 751 3078 
Q 1150 3584 1784 3584 
Q 2172 3584 2448 3432 
Q 2725 3281 2906 2969 
z
M 947 1747 
Q 947 1113 1208 752 
Q 1469 391 1925 391 
Q 2381 391 2643 752 
Q 2906 1113 2906 1747 
Q 2906 2381 2643 2742 
Q 2381 3103 1925 3103 
Q 1469 3103 1208 2742 
Q 947 2381 947 1747 
z
" transform="scale(0.015625)"/>
       <path id="DejaVuSans-6d" d="M 3328 2828 
Q 3544 3216 3844 3400 
Q 4144 3584 4550 3584 
Q 5097 3584 5394 3201 
Q 5691 2819 5691 2113 
L 5691 0 
L 5113 0 
L 5113 2094 
Q 5113 2597 4934 2840 
Q 4756 3084 4391 3084 
Q 3944 3084 3684 2787 
Q 3425 2491 3425 1978 
L 3425 0 
L 2847 0 
L 2847 2094 
Q 2847 2600 2669 2842 
Q 2491 3084 2119 3084 
Q 1678 3084 1418 2786 
Q 1159 2488 1159 1978 
L 1159 0 
L 581 0 
L 581 3500 
L 1159 3500 
L 1159 2956 
Q 1356 3278 1631 3431 
Q 1906 3584 2284 3584 
Q 2666 3584 2933 3390 
Q 3200 3197 3328 2828 
z
" transform="scale(0.015625)"/>
       <path id="DejaVuSans-6e" d="M 3513 2113 
L 3513 0 
L 2938 0 
L 2938 2094 
Q 2938 2591 2744 2837 
Q 2550 3084 2163 3084 
Q 1697 3084 1428 2787 
Q 1159 2491 1159 1978 
L 1159 0 
L 581 0 
L 581 3500 
L 1159 3500 
L 1159 2956 
Q 1366 3272 1645 3428 
Q 1925 3584 2291 3584 
Q 2894 3584 3203 3211 
Q 3513 2838 3513 2113 
z
" transform="scale(0.015625)"/>
      </defs>
      <use xlink:href="#DejaVuSans-65"/>
      <use xlink:href="#DejaVuSans-76" x="61.523438"/>
      <use xlink:href="#DejaVuSans-61" x="120.703125"/>
      <use xlink:href="#DejaVuSans-6c" x="181.982422"/>
      <use xlink:href="#DejaVuSans-75" x="209.765625"/>
      <use xlink:href="#DejaVuSans-61" x="273.144531"/>
      <use xlink:href="#DejaVuSans-74" x="334.423828"/>
      <use xlink:href="#DejaVuSans-6f" x="373.632812"/>
      <use xlink:href="#DejaVuSans-72" x="434.814453"/>
      <use xlink:href="#DejaVuSans-5f" x="475.927734"/>
      <use xlink:href="#DejaVuSans-73" x="525.927734"/>
      <use xlink:href="#DejaVuSans-74" x="578.027344"/>
      <use xlink:href="#DejaVuSans-65" x="617.236328"/>
      <use xlink:href="#DejaVuSans-70" x="678.759766"/>
      <use xlink:href="#DejaVuSans-2f" x="742.236328"/>
      <use xlink:href="#DejaVuSans-72" x="775.927734"/>
      <use xlink:href="#DejaVuSans-65" x="814.791016"/>
      <use xlink:href="#DejaVuSans-77" x="876.314453"/>
      <use xlink:href="#DejaVuSans-61" x="958.101562"/>
      <use xlink:href="#DejaVuSans-72" x="1019.380859"/>
      <use xlink:href="#DejaVuSans-64" x="1058.744141"/>
      <use xlink:href="#DejaVuSans-5f" x="1122.220703"/>
      <use xlink:href="#DejaVuSans-6d" x="1172.220703"/>
      <use xlink:href="#DejaVuSans-65" x="1269.632812"/>
      <use xlink:href="#DejaVuSans-61" x="1331.15625"/>
      <use xlink:href="#DejaVuSans-6e" x="1392.435547"/>
     </g>
    </g>
   </g>
   <g id="PolyCollection_1">
    <defs>
     <path id="m0c2055bf3d" d="M 73.935182 -75.394798 
L 73.935182 -75.394785 
L 73.992028 -75.394778 
L 78.456088 -75.394793 
L 78.53673 -75.392457 
L 78.636211 -75.389567 
L 83.279733 -75.308341 
L 83.29758 -75.27907 
L 83.44333 -75.394775 
L 88.027692 -75.39466 
L 88.347285 -75.321044 
L 88.583593 -75.259518 
L 92.708891 -75.394798 
L 93.069797 -75.394798 
L 93.452515 -75.12361 
L 97.689192 -75.340188 
L 98.260295 -75.393702 
L 98.43513 -75.393621 
L 102.95868 -75.394798 
L 103.377093 -75.394798 
L 105.009762 -75.343686 
L 107.884118 -75.369487 
L 108.194788 -75.394798 
L 113.068337 -77.008455 
L 113.560782 -77.345231 
L 118.027156 -78.622103 
L 118.804161 -77.870326 
L 120.174413 -74.443067 
L 123.198486 -64.372949 
L 127.537617 -51.718419 
L 128.318918 -50.112 
L 134.816874 -52.245073 
L 135.200585 -53.513818 
L 139.395949 -78.622103 
L 142.103403 -106.730486 
L 145.987105 -104.44057 
L 150.437285 -100.013145 
L 155.76428 -104.607121 
L 159.186935 -110.895184 
L 159.195528 -110.92715 
L 169.375252 -168.986728 
L 170.409716 -168.910815 
L 174.698942 -153.101202 
L 180.606625 -123.804417 
L 181.177729 -122.461727 
L 190.714299 -144.730841 
L 192.34135 -152.850188 
L 194.935442 -165.771107 
L 200.219803 -190.105932 
L 209.31747 -217.396345 
L 209.512465 -217.679622 
L 215.26944 -220.142951 
L 218.735391 -223.775525 
L 227.125789 -164.911252 
L 227.592124 -163.252318 
L 229.30246 -160.918458 
L 236.545363 -197.89879 
L 243.986565 -198.841957 
L 245.084485 -199.646152 
L 245.527024 -200.022395 
L 254.129603 -211.480888 
L 254.707647 -212.404385 
L 263.588175 -225.186885 
L 263.67047 -225.275206 
L 270.972201 -228.691925 
L 272.458459 -228.046405 
L 273.149203 -227.591321 
L 281.991394 -237.600061 
L 282.839787 -216.039774 
L 291.005114 -210.612617 
L 291.93481 -210.937273 
L 293.920122 -212.555385 
L 300.131534 -225.564495 
L 301.045697 -228.23475 
L 309.146576 -254.93501 
L 310.251768 -258.497714 
L 315.253551 -272.260577 
L 318.270683 -277.793288 
L 319.497829 -278.715196 
L 327.127747 -278.715196 
L 328.732653 -278.715196 
L 335.299684 -277.101539 
L 336.047935 -276.284276 
L 337.800245 -274.261479 
L 344.827 -265.965336 
L 346.971283 -263.867485 
L 351.808478 -260.965006 
L 353.888313 -260.745538 
L 356.524379 -261.201779 
L 362.944337 -263.630779 
L 365.505049 -264.247451 
L 367.946451 -264.192311 
L 371.730342 -262.557217 
L 374.429864 -260.674407 
L 380.63698 -256.547334 
L 381.749443 -256.124044 
L 383.349062 -255.819888 
L 389.573364 -259.58326 
L 392.404094 -264.858004 
L 395.009093 -272.260577 
L 395.009093 -278.715196 
L 395.009093 -278.715196 
L 392.404094 -278.715196 
L 389.573364 -278.849592 
L 383.349062 -278.715196 
L 381.749443 -278.715196 
L 380.63698 -278.715196 
L 374.429864 -278.715196 
L 371.730342 -278.982097 
L 367.946451 -279.118212 
L 365.505049 -278.715196 
L 362.944337 -278.715196 
L 356.524379 -278.715196 
L 353.888313 -278.715196 
L 351.808478 -278.715196 
L 346.971283 -278.715196 
L 344.827 -279.092839 
L 337.800245 -278.715196 
L 336.047935 -278.715196 
L 335.299684 -278.715196 
L 328.732653 -281.080781 
L 327.127747 -282.782405 
L 319.497829 -279.191422 
L 318.270683 -278.715196 
L 315.253551 -278.715199 
L 310.251768 -278.715199 
L 309.146576 -278.715196 
L 301.045697 -278.715188 
L 300.131534 -278.715196 
L 293.920122 -278.715257 
L 291.93481 -278.715227 
L 291.005114 -278.715196 
L 282.839787 -278.715196 
L 281.991394 -278.715196 
L 273.149203 -278.715542 
L 272.458459 -278.715196 
L 270.972201 -278.714184 
L 263.67047 -278.715196 
L 263.588175 -278.715368 
L 254.707647 -278.715196 
L 254.129603 -278.710292 
L 245.527024 -281.54215 
L 245.084485 -280.172833 
L 243.986565 -278.769519 
L 236.545363 -278.715196 
L 229.30246 -277.383944 
L 227.592124 -277.101539 
L 227.125789 -277.039965 
L 218.735391 -277.101539 
L 215.26944 -277.668679 
L 209.512465 -291.755553 
L 209.31747 -292.032 
L 200.219803 -280.164757 
L 194.935442 -277.450374 
L 192.34135 -277.07415 
L 190.714299 -277.101539 
L 181.177729 -277.101539 
L 180.606625 -276.648989 
L 174.698942 -270.390206 
L 170.409716 -270.64693 
L 169.375252 -272.136101 
L 159.195528 -285.896737 
L 159.186935 -285.881941 
L 155.76428 -272.260577 
L 150.437285 -218.407961 
L 145.987105 -157.62798 
L 142.103403 -112.508841 
L 139.395949 -109.162899 
L 135.200585 -101.21326 
L 134.816874 -99.771116 
L 128.318918 -89.917684 
L 127.537617 -88.267019 
L 123.198486 -89.729917 
L 120.174413 -97.985951 
L 118.804161 -96.795848 
L 118.027156 -94.884783 
L 113.560782 -89.902234 
L 113.068337 -90.581503 
L 108.194788 -93.995099 
L 107.884118 -94.015857 
L 105.009762 -93.144989 
L 103.377093 -91.829603 
L 102.95868 -91.404091 
L 98.43513 -84.839456 
L 98.260295 -84.523239 
L 97.689192 -83.463065 
L 93.452515 -76.117996 
L 93.069797 -75.709884 
L 92.708891 -75.730533 
L 88.583593 -80.23576 
L 88.347285 -80.253266 
L 88.027692 -80.202177 
L 83.44333 -75.403934 
L 83.29758 -75.394798 
L 83.279733 -75.394798 
L 78.636211 -75.394805 
L 78.53673 -75.435405 
L 78.456088 -75.468205 
L 73.992028 -75.397928 
L 73.935182 -75.394798 
z
" style="stroke: #4c72b0; stroke-opacity: 0.2"/>
    </defs>
    <g clip-path="url(#peaca41a9a9)">
     <use xlink:href="#m0c2055bf3d" x="0" y="345.6" style="fill: #4c72b0; fill-opacity: 0.2; stroke: #4c72b0; stroke-opacity: 0.2"/>
    </g>
   </g>
   <g id="PolyCollection_2">
    <defs>
     <path id="m0bf4f8cee2" d="M 74.017807 -75.882598 
L 74.017807 -75.394798 
L 74.03962 -75.394798 
L 78.723132 -75.35192 
L 78.806418 -75.361598 
L 79.090648 -75.389342 
L 83.616181 -75.394798 
L 83.624444 -75.395118 
L 83.833981 -75.394798 
L 88.069666 -74.923121 
L 88.32382 -75.044395 
L 88.847332 -75.176738 
L 92.984197 -75.07463 
L 93.302799 -75.394798 
L 93.727822 -75.860141 
L 97.362327 -76.768166 
L 98.345234 -75.652428 
L 98.638057 -75.394798 
L 102.302307 -75.022019 
L 103.671237 -75.394798 
L 103.810378 -75.423119 
L 108.644928 -75.091215 
L 110.150024 -75.349351 
L 110.770042 -75.348839 
L 113.500631 -75.394798 
L 116.355818 -75.40465 
L 116.939151 -75.40175 
L 118.239998 -75.394798 
L 123.104624 -75.394798 
L 123.737861 -75.002169 
L 124.837103 -75.394798 
L 127.97619 -75.394798 
L 132.255832 -75.383426 
L 132.397616 -75.384999 
L 133.023913 -75.394798 
L 137.991655 -75.394798 
L 142.806706 -75.394798 
L 143.515298 -75.625668 
L 146.027426 -76.680549 
L 147.688188 -77.008455 
L 152.446393 -75.394798 
L 153.543652 -75.194159 
L 155.980757 -75.254299 
L 157.37778 -75.394798 
L 162.474417 -75.394798 
L 167.670864 -75.394798 
L 168.387057 -75.532373 
L 171.182094 -75.865277 
L 172.624064 -75.394798 
L 178.681794 -88.703772 
L 178.832833 -77.008455 
L 185.193301 -104.44057 
L 190.851787 -93.692913 
L 190.875914 -93.637897 
L 192.641444 -91.531341 
L 201.975087 -129.038672 
L 205.384523 -131.808096 
L 213.151928 -131.872688 
L 214.838469 -130.262479 
L 221.203564 -120.30043 
L 229.526209 -106.905167 
L 234.295981 -104.44057 
L 235.231957 -127.545857 
L 243.986234 -118.796307 
L 256.46194 -150.706335 
L 258.676949 -152.850188 
L 260.230298 -156.661068 
L 274.012799 -197.040678 
L 276.7381 -196.352151 
L 284.000502 -170.987239 
L 288.963286 -156.077495 
L 296.773987 -170.29598 
L 303.848996 -202.873461 
L 316.851187 -215.945147 
L 320.313833 -191.577883 
L 320.313833 -274.567183 
L 320.313833 -274.567183 
L 316.851187 -273.874234 
L 303.848996 -273.452009 
L 296.773987 -270.64693 
L 288.963286 -262.187931 
L 284.000502 -254.226079 
L 276.7381 -239.987501 
L 274.012799 -234.143586 
L 260.230298 -215.092631 
L 258.676949 -215.475952 
L 256.46194 -217.396345 
L 243.986234 -245.088699 
L 235.231957 -244.828463 
L 234.295981 -242.128576 
L 229.526209 -221.590055 
L 221.203564 -185.123267 
L 214.838469 -180.219527 
L 213.151928 -181.187616 
L 205.384523 -181.895959 
L 201.975087 -174.52115 
L 192.641444 -142.837994 
L 190.875914 -131.51614 
L 190.851787 -138.274632 
L 185.193301 -131.713359 
L 178.832833 -130.316575 
L 178.681794 -130.259031 
L 172.624064 -126.161471 
L 171.182094 -125.140676 
L 168.387057 -123.804417 
L 167.670864 -123.666438 
L 162.474417 -125.216244 
L 157.37778 -130.12113 
L 155.980757 -131.872688 
L 153.543652 -135.161391 
L 152.446393 -136.652222 
L 147.688188 -142.068264 
L 146.027426 -143.168264 
L 143.515298 -143.666588 
L 142.806706 -143.539531 
L 137.991655 -139.412206 
L 133.023913 -128.84379 
L 132.397616 -127.031726 
L 132.255832 -126.60623 
L 127.97619 -112.928762 
L 124.837103 -105.614249 
L 123.737861 -104.44057 
L 123.104624 -104.189342 
L 118.239998 -106.710981 
L 116.939151 -106.541927 
L 116.355818 -106.054222 
L 113.500631 -100.083798 
L 110.770042 -92.82342 
L 110.150024 -91.531341 
L 108.644928 -89.407913 
L 103.810378 -88.304027 
L 103.671237 -88.309959 
L 102.302307 -88.236043 
L 98.638057 -85.535276 
L 98.345234 -85.076722 
L 97.362327 -83.242403 
L 93.727822 -80.23576 
L 93.302799 -80.157014 
L 92.984197 -80.006983 
L 88.847332 -75.394798 
L 88.32382 -75.394798 
L 88.069666 -75.489294 
L 83.833981 -76.892179 
L 83.624444 -77.008455 
L 83.616181 -77.013232 
L 79.090648 -80.108816 
L 78.806418 -80.210781 
L 78.723132 -80.23576 
L 74.03962 -75.938112 
L 74.017807 -75.882598 
z
" style="stroke: #dd8452; stroke-opacity: 0.2"/>
    </defs>
    <g clip-path="url(#peaca41a9a9)">
     <use xlink:href="#m0bf4f8cee2" x="0" y="345.6" style="fill: #dd8452; fill-opacity: 0.2; stroke: #dd8452; stroke-opacity: 0.2"/>
    </g>
   </g>
   <g id="line2d_12">
    <path d="M 73.833719 270.205202 
L 73.935182 270.205208 
L 73.992028 270.204165 
L 78.456088 270.180735 
L 78.53673 270.192446 
L 78.636211 270.206943 
L 83.279733 270.248608 
L 83.29758 270.243779 
L 83.44333 270.202164 
L 88.027692 268.602788 
L 88.347285 268.610297 
L 88.583593 268.6366 
L 92.708891 270.092948 
L 93.069797 270.099971 
L 93.452515 270.054532 
L 97.689192 267.535239 
L 98.260295 267.162754 
L 98.43513 267.057375 
L 102.95868 264.865802 
L 103.377093 264.616994 
L 105.009762 263.569497 
L 107.884118 262.392965 
L 108.194788 262.386372 
L 113.068337 263.250613 
L 113.560782 263.105592 
L 118.027156 260.839775 
L 118.804161 261.170574 
L 120.174413 262.751007 
L 123.198486 269.100779 
L 127.537617 273.806588 
L 128.318918 273.762963 
L 134.816874 265.493261 
L 135.200585 264.425376 
L 139.395949 248.860037 
L 142.103403 236.293333 
L 145.987105 218.710401 
L 150.437285 200.880916 
L 155.76428 184.245771 
L 159.186935 174.773094 
L 159.195528 174.746656 
L 169.375252 141.177932 
L 170.409716 139.319463 
L 174.698942 135.735941 
L 180.606625 135.18483 
L 181.177729 134.899642 
L 190.714299 120.262651 
L 192.34135 116.38293 
L 194.935442 109.795403 
L 200.219803 95.938038 
L 209.31747 82.876136 
L 209.512465 82.88321 
L 215.26944 90.522918 
L 218.735391 101.952377 
L 227.125789 129.582672 
L 227.592124 130.317852 
L 229.30246 131.691014 
L 236.545363 117.176988 
L 243.986565 94.566878 
L 245.084485 92.750649 
L 245.527024 92.17342 
L 254.129603 89.83576 
L 254.707647 89.726955 
L 263.588175 85.265403 
L 263.67047 85.231922 
L 270.972201 84.564713 
L 272.458459 84.84905 
L 273.149203 85.001749 
L 281.991394 87.469696 
L 282.839787 87.776647 
L 291.005114 90.060834 
L 291.93481 90.01532 
L 293.920122 89.547963 
L 300.131534 85.149141 
L 301.045697 84.249507 
L 309.146576 75.376031 
L 310.251768 74.161849 
L 315.253551 69.288009 
L 318.270683 67.250218 
L 319.497829 66.649631 
L 327.127747 65.501641 
L 328.732653 65.702011 
L 335.299684 67.466426 
L 336.047935 67.730457 
L 337.800245 68.369376 
L 344.827 71.008876 
L 346.971283 71.834041 
L 351.808478 73.468395 
L 353.888313 73.810335 
L 356.524379 73.798378 
L 362.944337 72.244074 
L 365.505049 71.707386 
L 367.946451 71.591427 
L 371.730342 72.18183 
L 374.429864 72.8984 
L 380.63698 74.30735 
L 381.749443 74.436133 
L 383.349062 74.516573 
L 389.573364 73.217317 
L 392.404094 71.503868 
L 395.009093 70.112113 
L 398.487273 66.884804 
" clip-path="url(#peaca41a9a9)" style="fill: none; stroke: #4c72b0; stroke-width: 1.5; stroke-linecap: round"/>
   </g>
   <g id="line2d_13">
    <path d="M 73.832727 270.205202 
L 74.017807 269.961302 
L 74.03962 270.02382 
L 78.723132 268.605306 
L 78.806418 268.610941 
L 79.090648 268.635681 
L 83.616181 269.650388 
L 83.624444 269.652416 
L 83.833981 269.703097 
L 88.069666 270.330929 
L 88.32382 270.334083 
L 88.847332 270.319466 
L 92.984197 268.774529 
L 93.302799 268.558069 
L 93.727822 268.256375 
L 97.362327 266.055776 
L 98.345234 265.744841 
L 98.638057 265.67878 
L 102.302307 265.511161 
L 103.671237 265.731648 
L 103.810378 265.760786 
L 108.644928 265.635358 
L 110.150024 264.225943 
L 110.770042 263.335213 
L 113.500631 258.072353 
L 116.355818 254.060916 
L 116.939151 253.903778 
L 118.239998 254.531467 
L 123.104624 260.474106 
L 123.737861 260.65363 
L 124.837103 260.130738 
L 127.97619 253.198315 
L 132.255832 240.767168 
L 132.397616 240.480774 
L 133.023913 239.38424 
L 137.991655 238.132336 
L 142.806706 242.185212 
L 143.515298 242.53002 
L 146.027426 242.695141 
L 147.688188 242.305552 
L 152.446393 240.972424 
L 153.543652 240.66796 
L 155.980757 240.202114 
L 157.37778 240.0854 
L 162.474417 240.471078 
L 167.670864 240.94277 
L 168.387057 240.896791 
L 171.182094 240.557185 
L 172.624064 240.481953 
L 178.681794 238.99121 
L 178.832833 238.817938 
L 185.193301 228.867965 
L 190.851787 229.160884 
L 190.875914 229.154973 
L 192.641444 227.818639 
L 201.975087 198.304292 
L 205.384523 189.171111 
L 213.151928 183.153081 
L 214.838469 183.62555 
L 221.203564 185.689135 
L 229.526209 179.234799 
L 234.295981 172.539059 
L 235.231957 171.354596 
L 243.986234 166.90032 
L 256.46194 170.124065 
L 258.676949 167.604878 
L 260.230298 164.815307 
L 274.012799 133.709541 
L 276.7381 133.322168 
L 284.000502 143.768126 
L 288.963286 136.467287 
L 296.773987 125.128545 
L 303.848996 107.437265 
L 316.851187 100.690309 
L 320.313833 112.527467 
L 329.454795 68.498461 
L 343.938948 70.112109 
L 357.631553 71.725766 
L 369.921517 66.884804 
L 380.340853 108.839808 
L 390.373834 68.498461 
" clip-path="url(#peaca41a9a9)" style="fill: none; stroke: #dd8452; stroke-width: 1.5; stroke-linecap: round"/>
   </g>
   <g id="patch_3">
    <path d="M 57.6 307.584 
L 57.6 41.472 
" style="fill: none; stroke: #ffffff; stroke-width: 1.25; stroke-linejoin: miter; stroke-linecap: square"/>
   </g>
   <g id="patch_4">
    <path d="M 414.72 307.584 
L 414.72 41.472 
" style="fill: none; stroke: #ffffff; stroke-width: 1.25; stroke-linejoin: miter; stroke-linecap: square"/>
   </g>
   <g id="patch_5">
    <path d="M 57.6 307.584 
L 414.72 307.584 
" style="fill: none; stroke: #ffffff; stroke-width: 1.25; stroke-linejoin: miter; stroke-linecap: square"/>
   </g>
   <g id="patch_6">
    <path d="M 57.6 41.472 
L 414.72 41.472 
" style="fill: none; stroke: #ffffff; stroke-width: 1.25; stroke-linejoin: miter; stroke-linecap: square"/>
   </g>
   <g id="text_14">
    <!-- 'step' - 'evaluator_step/reward_mean' plot -->
    <g style="fill: #262626" transform="translate(109.850625 35.472)scale(0.12 -0.12)">
     <defs>
      <path id="DejaVuSans-27" d="M 1147 4666 
L 1147 2931 
L 616 2931 
L 616 4666 
L 1147 4666 
z
" transform="scale(0.015625)"/>
      <path id="DejaVuSans-20" transform="scale(0.015625)"/>
      <path id="DejaVuSans-2d" d="M 313 2009 
L 1997 2009 
L 1997 1497 
L 313 1497 
L 313 2009 
z
" transform="scale(0.015625)"/>
     </defs>
     <use xlink:href="#DejaVuSans-27"/>
     <use xlink:href="#DejaVuSans-73" x="27.490234"/>
     <use xlink:href="#DejaVuSans-74" x="79.589844"/>
     <use xlink:href="#DejaVuSans-65" x="118.798828"/>
     <use xlink:href="#DejaVuSans-70" x="180.322266"/>
     <use xlink:href="#DejaVuSans-27" x="243.798828"/>
     <use xlink:href="#DejaVuSans-20" x="271.289062"/>
     <use xlink:href="#DejaVuSans-2d" x="303.076172"/>
     <use xlink:href="#DejaVuSans-20" x="339.160156"/>
     <use xlink:href="#DejaVuSans-27" x="370.947266"/>
     <use xlink:href="#DejaVuSans-65" x="398.4375"/>
     <use xlink:href="#DejaVuSans-76" x="459.960938"/>
     <use xlink:href="#DejaVuSans-61" x="519.140625"/>
     <use xlink:href="#DejaVuSans-6c" x="580.419922"/>
     <use xlink:href="#DejaVuSans-75" x="608.203125"/>
     <use xlink:href="#DejaVuSans-61" x="671.582031"/>
     <use xlink:href="#DejaVuSans-74" x="732.861328"/>
     <use xlink:href="#DejaVuSans-6f" x="772.070312"/>
     <use xlink:href="#DejaVuSans-72" x="833.251953"/>
     <use xlink:href="#DejaVuSans-5f" x="874.365234"/>
     <use xlink:href="#DejaVuSans-73" x="924.365234"/>
     <use xlink:href="#DejaVuSans-74" x="976.464844"/>
     <use xlink:href="#DejaVuSans-65" x="1015.673828"/>
     <use xlink:href="#DejaVuSans-70" x="1077.197266"/>
     <use xlink:href="#DejaVuSans-2f" x="1140.673828"/>
     <use xlink:href="#DejaVuSans-72" x="1174.365234"/>
     <use xlink:href="#DejaVuSans-65" x="1213.228516"/>
     <use xlink:href="#DejaVuSans-77" x="1274.751953"/>
     <use xlink:href="#DejaVuSans-61" x="1356.539062"/>
     <use xlink:href="#DejaVuSans-72" x="1417.818359"/>
     <use xlink:href="#DejaVuSans-64" x="1457.181641"/>
     <use xlink:href="#DejaVuSans-5f" x="1520.658203"/>
     <use xlink:href="#DejaVuSans-6d" x="1570.658203"/>
     <use xlink:href="#DejaVuSans-65" x="1668.070312"/>
     <use xlink:href="#DejaVuSans-61" x="1729.59375"/>
     <use xlink:href="#DejaVuSans-6e" x="1790.873047"/>
     <use xlink:href="#DejaVuSans-27" x="1854.251953"/>
     <use xlink:href="#DejaVuSans-20" x="1881.742188"/>
     <use xlink:href="#DejaVuSans-70" x="1913.529297"/>
     <use xlink:href="#DejaVuSans-6c" x="1977.005859"/>
     <use xlink:href="#DejaVuSans-6f" x="2004.789062"/>
     <use xlink:href="#DejaVuSans-74" x="2065.970703"/>
    </g>
   </g>
   <g id="legend_1">
    <g id="patch_7">
     <path d="M 253.58375 302.084 
L 407.02 302.084 
Q 409.22 302.084 409.22 299.884 
L 409.22 268.08025 
Q 409.22 265.88025 407.02 265.88025 
L 253.58375 265.88025 
Q 251.38375 265.88025 251.38375 268.08025 
L 251.38375 299.884 
Q 251.38375 302.084 253.58375 302.084 
z
" style="fill: #eaeaf2; opacity: 0.8; stroke: #cccccc; stroke-linejoin: miter"/>
    </g>
    <g id="line2d_14">
     <path d="M 255.78375 274.788531 
L 266.78375 274.788531 
L 277.78375 274.788531 
" style="fill: none; stroke: #4c72b0; stroke-width: 1.5; stroke-linecap: round"/>
    </g>
    <g id="text_15">
     <!-- pong_efficientzero_tb -->
     <g style="fill: #262626" transform="translate(286.58375 278.638531)scale(0.11 -0.11)">
      <defs>
       <path id="DejaVuSans-67" d="M 2906 1791 
Q 2906 2416 2648 2759 
Q 2391 3103 1925 3103 
Q 1463 3103 1205 2759 
Q 947 2416 947 1791 
Q 947 1169 1205 825 
Q 1463 481 1925 481 
Q 2391 481 2648 825 
Q 2906 1169 2906 1791 
z
M 3481 434 
Q 3481 -459 3084 -895 
Q 2688 -1331 1869 -1331 
Q 1566 -1331 1297 -1286 
Q 1028 -1241 775 -1147 
L 775 -588 
Q 1028 -725 1275 -790 
Q 1522 -856 1778 -856 
Q 2344 -856 2625 -561 
Q 2906 -266 2906 331 
L 2906 616 
Q 2728 306 2450 153 
Q 2172 0 1784 0 
Q 1141 0 747 490 
Q 353 981 353 1791 
Q 353 2603 747 3093 
Q 1141 3584 1784 3584 
Q 2172 3584 2450 3431 
Q 2728 3278 2906 2969 
L 2906 3500 
L 3481 3500 
L 3481 434 
z
" transform="scale(0.015625)"/>
       <path id="DejaVuSans-66" d="M 2375 4863 
L 2375 4384 
L 1825 4384 
Q 1516 4384 1395 4259 
Q 1275 4134 1275 3809 
L 1275 3500 
L 2222 3500 
L 2222 3053 
L 1275 3053 
L 1275 0 
L 697 0 
L 697 3053 
L 147 3053 
L 147 3500 
L 697 3500 
L 697 3744 
Q 697 4328 969 4595 
Q 1241 4863 1831 4863 
L 2375 4863 
z
" transform="scale(0.015625)"/>
       <path id="DejaVuSans-69" d="M 603 3500 
L 1178 3500 
L 1178 0 
L 603 0 
L 603 3500 
z
M 603 4863 
L 1178 4863 
L 1178 4134 
L 603 4134 
L 603 4863 
z
" transform="scale(0.015625)"/>
       <path id="DejaVuSans-63" d="M 3122 3366 
L 3122 2828 
Q 2878 2963 2633 3030 
Q 2388 3097 2138 3097 
Q 1578 3097 1268 2742 
Q 959 2388 959 1747 
Q 959 1106 1268 751 
Q 1578 397 2138 397 
Q 2388 397 2633 464 
Q 2878 531 3122 666 
L 3122 134 
Q 2881 22 2623 -34 
Q 2366 -91 2075 -91 
Q 1284 -91 818 406 
Q 353 903 353 1747 
Q 353 2603 823 3093 
Q 1294 3584 2113 3584 
Q 2378 3584 2631 3529 
Q 2884 3475 3122 3366 
z
" transform="scale(0.015625)"/>
       <path id="DejaVuSans-7a" d="M 353 3500 
L 3084 3500 
L 3084 2975 
L 922 459 
L 3084 459 
L 3084 0 
L 275 0 
L 275 525 
L 2438 3041 
L 353 3041 
L 353 3500 
z
" transform="scale(0.015625)"/>
       <path id="DejaVuSans-62" d="M 3116 1747 
Q 3116 2381 2855 2742 
Q 2594 3103 2138 3103 
Q 1681 3103 1420 2742 
Q 1159 2381 1159 1747 
Q 1159 1113 1420 752 
Q 1681 391 2138 391 
Q 2594 391 2855 752 
Q 3116 1113 3116 1747 
z
M 1159 2969 
Q 1341 3281 1617 3432 
Q 1894 3584 2278 3584 
Q 2916 3584 3314 3078 
Q 3713 2572 3713 1747 
Q 3713 922 3314 415 
Q 2916 -91 2278 -91 
Q 1894 -91 1617 61 
Q 1341 213 1159 525 
L 1159 0 
L 581 0 
L 581 4863 
L 1159 4863 
L 1159 2969 
z
" transform="scale(0.015625)"/>
      </defs>
      <use xlink:href="#DejaVuSans-70"/>
      <use xlink:href="#DejaVuSans-6f" x="63.476562"/>
      <use xlink:href="#DejaVuSans-6e" x="124.658203"/>
      <use xlink:href="#DejaVuSans-67" x="188.037109"/>
      <use xlink:href="#DejaVuSans-5f" x="251.513672"/>
      <use xlink:href="#DejaVuSans-65" x="301.513672"/>
      <use xlink:href="#DejaVuSans-66" x="363.037109"/>
      <use xlink:href="#DejaVuSans-66" x="398.242188"/>
      <use xlink:href="#DejaVuSans-69" x="433.447266"/>
      <use xlink:href="#DejaVuSans-63" x="461.230469"/>
      <use xlink:href="#DejaVuSans-69" x="516.210938"/>
      <use xlink:href="#DejaVuSans-65" x="543.994141"/>
      <use xlink:href="#DejaVuSans-6e" x="605.517578"/>
      <use xlink:href="#DejaVuSans-74" x="668.896484"/>
      <use xlink:href="#DejaVuSans-7a" x="708.105469"/>
      <use xlink:href="#DejaVuSans-65" x="760.595703"/>
      <use xlink:href="#DejaVuSans-72" x="822.119141"/>
      <use xlink:href="#DejaVuSans-6f" x="860.982422"/>
      <use xlink:href="#DejaVuSans-5f" x="922.164062"/>
      <use xlink:href="#DejaVuSans-74" x="972.164062"/>
      <use xlink:href="#DejaVuSans-62" x="1011.373047"/>
     </g>
    </g>
    <g id="line2d_15">
     <path d="M 255.78375 291.240406 
L 266.78375 291.240406 
L 277.78375 291.240406 
" style="fill: none; stroke: #dd8452; stroke-width: 1.5; stroke-linecap: round"/>
    </g>
    <g id="text_16">
     <!-- pong_muzero_tb -->
     <g style="fill: #262626" transform="translate(286.58375 295.090406)scale(0.11 -0.11)">
      <use xlink:href="#DejaVuSans-70"/>
      <use xlink:href="#DejaVuSans-6f" x="63.476562"/>
      <use xlink:href="#DejaVuSans-6e" x="124.658203"/>
      <use xlink:href="#DejaVuSans-67" x="188.037109"/>
      <use xlink:href="#DejaVuSans-5f" x="251.513672"/>
      <use xlink:href="#DejaVuSans-6d" x="301.513672"/>
      <use xlink:href="#DejaVuSans-75" x="398.925781"/>
      <use xlink:href="#DejaVuSans-7a" x="462.304688"/>
      <use xlink:href="#DejaVuSans-65" x="514.794922"/>
      <use xlink:href="#DejaVuSans-72" x="576.318359"/>
      <use xlink:href="#DejaVuSans-6f" x="615.181641"/>
      <use xlink:href="#DejaVuSans-5f" x="676.363281"/>
      <use xlink:href="#DejaVuSans-74" x="726.363281"/>
      <use xlink:href="#DejaVuSans-62" x="765.572266"/>
     </g>
    </g>
   </g>
  </g>
 </g>
 <defs>
  <clipPath id="peaca41a9a9">
   <rect x="57.6" y="41.472" width="357.12" height="266.112"/>
  </clipPath>
 </defs>
</svg>
